{"glyphs":{" ":{"ha":317,"x_min":0,"x_max":0,"o":""},"A":{"ha":916,"x_min":-11,"x_max":928,"o":"m 349 429 l 560 429 l 537 517 q 495 686 522 571 q 456 849 468 800 l 450 849 q 370 517 423 727 l 349 429 m 667 0 l 606 237 l 301 237 l 241 0 l -11 0 l 309 1034 l 606 1034 l 928 0 l 667 0 z "},"H":{"ha":1074,"x_min":119,"x_max":954,"o":"m 119 0 l 119 1034 l 368 1034 l 368 640 l 708 640 l 708 1034 l 954 1034 l 954 0 l 708 0 l 708 425 l 368 425 l 368 0 l 119 0 z "},"I":{"ha":486,"x_min":119,"x_max":368,"o":"m 119 0 l 119 1034 l 368 1034 l 368 0 l 119 0 z "},"K":{"ha":982,"x_min":119,"x_max":996,"o":"m 119 0 l 119 1034 l 368 1034 l 368 625 l 372 625 l 665 1034 l 937 1034 l 625 620 l 996 0 l 724 0 l 480 423 l 368 271 l 368 0 l 119 0 z "},"M":{"ha":1218,"x_min":119,"x_max":1100,"o":"m 119 0 l 119 1034 l 388 1034 l 552 587 q 609 399 559 568 l 616 399 q 645 495 627 431 q 673 587 663 559 l 830 1034 l 1100 1034 l 1100 0 l 873 0 l 873 354 q 906 712 873 441 l 901 712 l 814 465 l 675 88 l 538 88 l 399 465 l 315 712 l 309 712 q 342 354 342 441 l 342 0 l 119 0 z "},"N":{"ha":1061,"x_min":119,"x_max":940,"o":"m 119 0 l 119 1034 l 372 1034 l 629 538 l 731 309 l 738 309 q 704 692 704 583 l 704 1034 l 940 1034 l 940 0 l 688 0 l 431 499 l 331 726 l 324 726 q 336 613 327 701 q 351 462 346 525 q 355 343 355 399 l 355 0 l 119 0 z "},"R":{"ha":982,"x_min":119,"x_max":956,"o":"m 368 837 l 368 560 l 479 560 q 659 708 659 560 q 615 808 659 779 q 479 837 571 837 l 368 837 m 956 0 l 678 0 l 487 363 l 368 363 l 368 0 l 119 0 l 119 1034 l 499 1034 q 903 708 903 1034 q 726 410 903 492 l 956 0 z "},"S":{"ha":887,"x_min":54,"x_max":834,"o":"m 441 -19 q 235 19 336 -19 q 54 129 133 57 l 194 300 q 318 223 250 252 q 446 194 387 194 q 581 285 581 194 q 521 363 581 332 q 435 401 505 373 l 302 457 q 153 565 212 494 q 94 741 94 636 q 199 962 94 872 q 468 1053 305 1053 q 649 1018 560 1053 q 804 917 738 983 l 681 761 q 468 841 575 841 q 378 818 411 841 q 345 754 345 795 q 376 696 345 718 q 484 646 408 675 q 502 639 496 642 l 631 587 q 834 304 834 505 q 728 75 834 168 q 441 -19 621 -19 z "},"T":{"ha":888,"x_min":41,"x_max":849,"o":"m 320 0 l 320 827 l 41 827 l 41 1034 l 849 1034 l 849 827 l 568 827 l 568 0 l 320 0 z "},"Z":{"ha":859,"x_min":54,"x_max":810,"o":"m 54 0 l 54 151 l 500 827 l 98 827 l 98 1034 l 806 1034 l 806 884 l 359 209 l 810 209 l 810 0 l 54 0 z "},"a":{"ha":841,"x_min":65,"x_max":751,"o":"m 300 -19 q 129 50 193 -19 q 65 221 65 119 q 170 416 65 347 q 505 511 274 486 q 385 613 496 613 q 178 543 301 613 l 92 705 q 431 810 267 810 q 751 449 751 810 l 751 0 l 551 0 l 532 79 l 526 79 q 300 -19 418 -19 m 385 172 q 505 235 446 172 l 505 361 q 300 240 300 334 q 385 172 300 172 z "},"h":{"ha":913,"x_min":100,"x_max":822,"o":"m 100 0 l 100 1109 l 346 1109 l 346 844 l 335 703 q 576 810 450 810 q 822 488 822 810 l 822 0 l 575 0 l 575 458 q 553 568 575 537 q 483 598 532 598 q 415 582 444 598 q 346 528 387 566 l 346 0 l 100 0 z "},"i":{"ha":445,"x_min":81,"x_max":363,"o":"m 100 0 l 100 791 l 346 791 l 346 0 l 100 0 m 224 901 q 121 936 161 901 q 81 1027 81 971 q 121 1118 81 1082 q 224 1154 161 1154 q 324 1118 285 1154 q 363 1027 363 1082 q 324 936 363 971 q 224 901 285 901 z "},"k":{"ha":880,"x_min":100,"x_max":873,"o":"m 100 0 l 100 1109 l 340 1109 l 340 490 l 346 490 l 586 791 l 854 791 l 575 464 l 873 0 l 605 0 l 435 300 l 340 193 l 340 0 l 100 0 z "},"m":{"ha":1389,"x_min":111,"x_max":1286,"o":"m 111 0 l 111 791 l 312 791 l 328 690 l 335 690 q 448 779 393 749 q 575 810 502 810 q 791 680 728 810 q 909 776 852 742 q 1039 810 967 810 q 1225 726 1164 810 q 1286 488 1286 642 l 1286 0 l 1039 0 l 1039 458 q 1018 568 1039 537 q 948 598 997 598 q 822 528 891 598 l 822 0 l 574 0 l 574 458 q 553 568 574 537 q 483 598 532 598 q 357 528 426 598 l 357 0 l 111 0 z "},"n":{"ha":913,"x_min":100,"x_max":822,"o":"m 100 0 l 100 791 l 301 791 l 317 692 l 324 692 q 576 810 445 810 q 822 488 822 810 l 822 0 l 575 0 l 575 458 q 553 568 575 537 q 483 598 532 598 q 415 582 444 598 q 346 528 387 566 l 346 0 l 100 0 z "},"r":{"ha":644,"x_min":100,"x_max":644,"o":"m 100 0 l 100 791 l 301 791 l 317 652 l 324 652 q 427 769 366 728 q 548 810 487 810 q 644 793 608 810 l 602 581 q 517 593 553 593 q 422 559 468 593 q 346 452 376 525 l 346 0 l 100 0 z "},"s":{"ha":708,"x_min":33,"x_max":665,"o":"m 336 -19 q 176 12 259 -19 q 33 92 92 42 l 141 245 q 342 163 248 163 q 435 225 435 163 q 431 243 435 235 q 418 260 427 252 q 399 275 408 269 q 374 288 391 281 q 345 300 357 296 q 312 313 334 305 q 278 327 290 321 q 72 559 72 410 q 157 741 72 671 q 378 810 241 810 q 661 708 524 810 l 551 562 q 387 628 457 628 q 302 571 302 628 q 307 553 302 562 q 319 536 311 544 q 337 524 328 529 q 363 511 346 518 q 391 500 380 505 q 423 488 401 495 q 457 476 445 480 q 532 442 500 460 q 597 397 564 425 q 647 330 629 370 q 665 239 665 289 q 579 53 665 125 q 336 -19 494 -19 z "},"t":{"ha":617,"x_min":24,"x_max":590,"o":"m 411 -19 q 200 64 269 -19 q 132 293 132 146 l 132 597 l 24 597 l 24 780 l 146 791 l 174 998 l 380 998 l 380 791 l 566 791 l 566 597 l 380 597 l 380 296 q 479 174 380 174 q 552 187 505 174 l 590 9 q 411 -19 492 -19 z "},"z":{"ha":738,"x_min":61,"x_max":700,"o":"m 61 0 l 61 132 l 382 597 l 98 597 l 98 791 l 690 791 l 690 658 l 369 193 l 700 193 l 700 0 l 61 0 z "},"宝":{"ha":1389,"x_min":94,"x_max":1295,"o":"m 1080 852 l 298 852 l 298 753 l 1080 753 l 1080 852 m 909 266 l 792 266 l 792 95 l 959 95 q 844 221 903 164 l 909 266 m 1162 567 l 792 567 l 792 450 l 1122 450 l 1122 266 l 1043 266 q 1156 137 1124 187 l 1095 95 l 1284 95 l 1284 -92 l 109 -92 l 109 95 l 583 95 l 583 266 l 278 266 l 278 450 l 583 450 l 583 567 l 224 567 l 224 690 l 94 690 l 94 1042 l 582 1042 l 582 1185 l 799 1185 l 799 1042 l 1295 1042 l 1295 690 l 1162 690 l 1162 567 z "},"島":{"ha":1389,"x_min":106,"x_max":1339,"o":"m 926 951 l 430 951 l 430 910 l 926 910 l 926 951 m 430 743 l 926 743 l 926 791 l 430 791 l 430 743 m 1339 418 l 430 418 l 430 369 l 1291 369 q 1286 300 1290 323 q 1213 -72 1263 -14 q 1112 -126 1175 -115 q 968 -132 1066 -134 q 921 41 966 -42 q 1006 35 959 35 q 1047 50 1032 35 q 1085 227 1070 79 l 595 227 l 595 85 l 712 85 l 712 199 l 898 199 l 898 -64 l 288 -64 l 288 -119 l 106 -119 l 106 199 l 288 199 l 288 85 l 411 85 l 411 227 l 231 227 l 231 1088 l 540 1088 q 557 1192 556 1175 l 802 1177 q 758 1088 789 1143 l 1130 1088 l 1130 609 l 430 609 l 430 564 l 1339 564 l 1339 418 z "},"新":{"ha":1389,"x_min":12,"x_max":1352,"o":"m 464 891 l 292 891 q 330 765 324 814 l 269 749 l 506 749 l 422 765 q 464 891 453 849 m 667 195 l 552 53 q 518 92 543 65 q 481 132 494 118 l 481 -130 l 286 -130 l 286 100 q 142 -54 217 8 q 12 90 76 38 q 248 332 149 179 l 56 332 l 56 500 l 286 500 l 286 585 l 52 585 l 52 749 l 164 749 q 129 873 157 803 l 203 891 l 68 891 l 68 1054 l 286 1054 l 286 1172 l 481 1172 l 481 1054 l 700 1054 l 700 891 l 587 891 l 647 880 q 618 814 637 860 q 589 749 598 768 l 708 749 l 708 585 l 481 585 l 481 500 l 694 500 l 694 332 l 481 332 l 481 331 q 542 288 503 316 q 621 231 581 260 q 667 195 661 201 m 936 899 l 936 734 l 1352 734 l 1352 547 l 1234 547 l 1234 -125 l 1039 -125 l 1039 547 l 936 547 q 724 -133 926 84 q 661 -57 707 -100 q 579 4 614 -14 q 669 138 633 64 q 720 296 704 213 q 740 445 735 378 q 745 595 745 511 l 745 1081 l 854 1050 q 1192 1173 1077 1109 l 1352 1028 q 936 899 1202 959 z "}}}
